<svg xmlns="http://www.w3.org/2000/svg" xmlns:xlink="http://www.w3.org/1999/xlink" width="64" zoomAndPan="magnify" viewBox="0 0 48 48" height="64" preserveAspectRatio="xMidYMid meet" version="1.0"><defs><g/></defs><g fill="#000000" fill-opacity="1"><g transform="translate(30.48446, 30.316086)"><g><path d="M 5.875 -14.25 C 7.425781 -14.25 8.640625 -13.863281 9.515625 -13.09375 C 10.390625 -12.320312 10.828125 -11.238281 10.828125 -9.84375 C 10.828125 -9.039062 10.664062 -8.289062 10.34375 -7.59375 C 10.019531 -6.894531 9.5 -6.328125 8.78125 -5.890625 C 8.0625 -5.460938 7.160156 -5.25 6.078125 -5.25 L 3.96875 -5.25 L 3.96875 0 L 2.046875 0 L 2.046875 -14.25 Z M 6.078125 -7.09375 C 6.753906 -7.09375 7.304688 -7.238281 7.734375 -7.53125 C 8.160156 -7.820312 8.46875 -8.171875 8.65625 -8.578125 C 8.84375 -8.992188 8.9375 -9.398438 8.9375 -9.796875 C 8.9375 -10.484375 8.710938 -11.09375 8.265625 -11.625 C 7.816406 -12.15625 7.117188 -12.421875 6.171875 -12.421875 L 3.96875 -12.421875 L 3.96875 -7.09375 Z M 6.078125 -7.09375 "/></g></g></g><g fill="#000000" fill-opacity="1"><g transform="translate(5.077829, 30.316086)"><g><path d="M 13.390625 -14.25 L 7.09375 0.671875 L 0.8125 -14.25 L 3.078125 -14.25 L 7.171875 -3.984375 L 11.140625 -14.25 Z M 13.390625 -14.25 "/></g></g></g><path stroke-linecap="butt" transform="matrix(0, -0.72992, 0.734694, 0, 23.833525, 39.409439)" fill="none" stroke-linejoin="miter" d="M -0.000982106 0.49775 L 43.28289 0.49775 " stroke="#000000" stroke-width="1" stroke-opacity="1" stroke-miterlimit="4"/></svg>