<svg xmlns="http://www.w3.org/2000/svg" xmlns:xlink="http://www.w3.org/1999/xlink" width="240" zoomAndPan="magnify" viewBox="0 0 180 48" height="64" preserveAspectRatio="xMidYMid meet" version="1.0"><defs><g/><clipPath id="2cc1f97bb9"><path d="M 33 0 L 37 0 L 37 47.019531 L 33 47.019531 Z M 33 0 " clip-rule="nonzero"/></clipPath></defs><g fill="#000000" fill-opacity="1"><g transform="translate(76.93692, 26.046688)"><g><path d="M 0.304688 -2.785156 C 0.304688 -1.160156 1.550781 0.078125 3.175781 0.078125 C 4.273438 0.078125 5.359375 -0.527344 5.746094 -1.582031 L 4.683594 -2.070312 C 4.441406 -1.464844 3.886719 -1.039062 3.191406 -1.039062 C 2.199219 -1.039062 1.503906 -1.828125 1.503906 -2.796875 C 1.503906 -3.753906 2.222656 -4.535156 3.191406 -4.535156 C 3.886719 -4.535156 4.4375 -4.144531 4.671875 -3.53125 L 5.722656 -4.015625 C 5.347656 -5.0625 4.292969 -5.660156 3.195312 -5.660156 C 1.601562 -5.660156 0.304688 -4.394531 0.304688 -2.785156 Z M 0.304688 -2.785156 "/></g></g></g><g fill="#000000" fill-opacity="1"><g transform="translate(87.410228, 26.046688)"><g><path d="M 0.304688 -2.785156 C 0.304688 -1.175781 1.585938 0.0859375 3.191406 0.0859375 C 4.792969 0.0859375 6.09375 -1.1875 6.09375 -2.8125 C 6.09375 -4.414062 4.820312 -5.660156 3.21875 -5.660156 C 1.617188 -5.660156 0.304688 -4.386719 0.304688 -2.785156 Z M 1.488281 -2.789062 C 1.488281 -3.753906 2.242188 -4.542969 3.203125 -4.542969 C 4.164062 -4.542969 4.917969 -3.753906 4.917969 -2.789062 C 4.917969 -1.828125 4.164062 -1.03125 3.203125 -1.03125 C 2.242188 -1.03125 1.488281 -1.828125 1.488281 -2.789062 Z M 1.488281 -2.789062 "/></g></g></g><g fill="#000000" fill-opacity="1"><g transform="translate(98.360565, 26.046688)"><g><path d="M 1.785156 -3.84375 L 4.351562 0 L 5.523438 0 L 5.523438 -5.574219 L 4.386719 -5.574219 L 4.386719 -1.9375 L 1.964844 -5.574219 L 0.648438 -5.574219 L 0.648438 0 L 1.785156 0 Z M 1.785156 -3.84375 "/></g></g></g><g fill="#000000" fill-opacity="1"><g transform="translate(109.09019, 26.046688)"><g><path d="M 1.507812 -4.050781 C 1.507812 -4.378906 1.785156 -4.621094 2.25 -4.621094 C 2.726562 -4.621094 3.117188 -4.386719 3.304688 -3.9375 L 4.257812 -4.457031 C 3.9375 -5.21875 3.230469 -5.660156 2.300781 -5.660156 C 1.246094 -5.660156 0.355469 -4.976562 0.355469 -3.980469 C 0.355469 -3.554688 0.527344 -3.195312 0.78125 -2.949219 C 1.082031 -2.648438 1.546875 -2.449219 2.144531 -2.269531 C 2.953125 -2.027344 3.195312 -1.878906 3.195312 -1.550781 C 3.195312 -1.210938 2.847656 -0.960938 2.347656 -0.960938 C 1.785156 -0.960938 1.34375 -1.253906 1.132812 -1.738281 L 0.136719 -1.226562 C 0.460938 -0.425781 1.261719 0.0859375 2.3125 0.0859375 C 3.632812 0.0859375 4.355469 -0.65625 4.355469 -1.636719 C 4.355469 -2.578125 3.644531 -3.011719 2.40625 -3.367188 C 1.808594 -3.539062 1.507812 -3.703125 1.507812 -4.050781 Z M 1.507812 -4.050781 "/></g></g></g><g fill="#000000" fill-opacity="1"><g transform="translate(118.281918, 26.046688)"><g><path d="M 5.070312 -2.25 L 5.070312 -5.574219 L 3.929688 -5.574219 L 3.929688 -2.207031 C 3.929688 -1.503906 3.539062 -1.03125 2.828125 -1.03125 C 2.222656 -1.03125 1.746094 -1.410156 1.746094 -2.234375 L 1.75 -5.574219 L 0.589844 -5.574219 L 0.589844 -2.207031 C 0.589844 -0.863281 1.273438 0.078125 2.820312 0.078125 C 4.328125 0.078125 5.070312 -0.824219 5.070312 -2.25 Z M 5.070312 -2.25 "/></g></g></g><g fill="#000000" fill-opacity="1"><g transform="translate(128.491792, 26.046688)"><g><path d="M 0.648438 -5.574219 L 0.648438 0 L 4.179688 0 L 4.179688 -1.097656 L 1.792969 -1.097656 L 1.792969 -5.574219 Z M 0.648438 -5.574219 "/></g></g></g><g fill="#000000" fill-opacity="1"><g transform="translate(137.341765, 26.046688)"><g><path d="M 1.824219 0 L 2.96875 0 L 2.96875 -4.457031 L 4.640625 -4.457031 L 4.640625 -5.574219 L 0.148438 -5.574219 L 0.148438 -4.457031 L 1.824219 -4.457031 Z M 1.824219 0 "/></g></g></g><g fill="#000000" fill-opacity="1"><g transform="translate(146.683008, 26.046688)"><g><path d="M 1.800781 -5.574219 L 0.648438 -5.574219 L 0.648438 0 L 1.800781 0 Z M 1.800781 -5.574219 "/></g></g></g><g fill="#000000" fill-opacity="1"><g transform="translate(153.688936, 26.046688)"><g><path d="M 1.785156 -3.84375 L 4.351562 0 L 5.523438 0 L 5.523438 -5.574219 L 4.386719 -5.574219 L 4.386719 -1.9375 L 1.964844 -5.574219 L 0.648438 -5.574219 L 0.648438 0 L 1.785156 0 Z M 1.785156 -3.84375 "/></g></g></g><g fill="#000000" fill-opacity="1"><g transform="translate(164.418562, 26.046688)"><g><path d="M 1.480469 -2.789062 C 1.480469 -3.800781 2.257812 -4.570312 3.195312 -4.570312 C 4.09375 -4.570312 4.527344 -4.007812 4.691406 -3.589844 L 5.710938 -4.085938 C 5.460938 -4.785156 4.636719 -5.660156 3.210938 -5.660156 C 1.625 -5.660156 0.304688 -4.40625 0.304688 -2.785156 C 0.304688 -1.195312 1.472656 0.0859375 3.195312 0.0859375 C 4.558594 0.0859375 5.839844 -0.824219 5.839844 -2.5625 L 5.839844 -2.996094 L 2.941406 -2.996094 L 2.941406 -1.949219 L 4.636719 -1.949219 C 4.5 -1.402344 3.953125 -1.011719 3.195312 -1.011719 C 2.1875 -1.011719 1.480469 -1.824219 1.480469 -2.789062 Z M 1.480469 -2.789062 "/></g></g></g><g fill="#000000" fill-opacity="1"><g transform="translate(43.858184, 33.044998)"><g><path d="M 8.234375 -19.96875 C 10.398438 -19.96875 12.097656 -19.425781 13.328125 -18.34375 C 14.554688 -17.257812 15.171875 -15.738281 15.171875 -13.78125 C 15.171875 -12.65625 14.941406 -11.601562 14.484375 -10.625 C 14.035156 -9.65625 13.304688 -8.863281 12.296875 -8.25 C 11.296875 -7.644531 10.035156 -7.34375 8.515625 -7.34375 L 5.546875 -7.34375 L 5.546875 0 L 2.875 0 L 2.875 -19.96875 Z M 8.515625 -9.9375 C 9.460938 -9.9375 10.234375 -10.140625 10.828125 -10.546875 C 11.429688 -10.953125 11.863281 -11.445312 12.125 -12.03125 C 12.382812 -12.613281 12.515625 -13.179688 12.515625 -13.734375 C 12.515625 -14.691406 12.203125 -15.539062 11.578125 -16.28125 C 10.953125 -17.03125 9.972656 -17.40625 8.640625 -17.40625 L 5.546875 -17.40625 L 5.546875 -9.9375 Z M 8.515625 -9.9375 "/></g></g></g><g fill="#000000" fill-opacity="1"><g transform="translate(8.264403, 33.044998)"><g><path d="M 18.75 -19.96875 L 9.9375 0.9375 L 1.125 -19.96875 L 4.3125 -19.96875 L 10.0625 -5.578125 L 15.609375 -19.96875 Z M 18.75 -19.96875 "/></g></g></g><g clip-path="url(#2cc1f97bb9)"><path stroke-linecap="butt" transform="matrix(0, -0.739048, 0.734694, 0, 33.220254, 45.786353)" fill="none" stroke-linejoin="miter" d="M 0.00161969 2.502184 L 60.642357 2.502184 " stroke="#000000" stroke-width="5" stroke-opacity="1" stroke-miterlimit="4"/></g></svg>